<svg xmlns="http://www.w3.org/2000/svg" xmlns:xlink="http://www.w3.org/1999/xlink" width="1920" zoomAndPan="magnify" viewBox="0 0 1440 809.999993" height="1080" preserveAspectRatio="xMidYMid meet" version="1.0"><defs><g/><clipPath id="cabebea818"><path d="M 0.441406 0.320312 L 788.359375 0.320312 L 788.359375 236.960938 L 0.441406 236.960938 Z M 0.441406 0.320312 " clip-rule="nonzero"/></clipPath><clipPath id="1d9180a01e"><path d="M 0.441406 0.320312 L 788.359375 0.320312 L 788.359375 236.960938 L 0.441406 236.960938 Z M 0.441406 0.320312 " clip-rule="nonzero"/></clipPath><clipPath id="16162a3031"><path d="M 0.632812 0.5 L 788 0.5 L 788 236.839844 L 0.632812 236.839844 Z M 0.632812 0.5 " clip-rule="nonzero"/></clipPath><clipPath id="2fd698df7f"><path d="M 101.882812 0.5 L 686.691406 0.5 C 713.546875 0.5 739.296875 11.167969 758.285156 30.15625 C 777.273438 49.144531 787.941406 74.898438 787.941406 101.75 L 787.941406 135.589844 C 787.941406 162.441406 777.273438 188.195312 758.285156 207.183594 C 739.296875 226.171875 713.546875 236.839844 686.691406 236.839844 L 101.882812 236.839844 C 75.027344 236.839844 49.277344 226.171875 30.289062 207.183594 C 11.300781 188.195312 0.632812 162.441406 0.632812 135.589844 L 0.632812 101.75 C 0.632812 74.898438 11.300781 49.144531 30.289062 30.15625 C 49.277344 11.167969 75.027344 0.5 101.882812 0.5 Z M 101.882812 0.5 " clip-rule="nonzero"/></clipPath><clipPath id="c7268f5d59"><path d="M 0.632812 0.5 L 788 0.5 L 788 236.839844 L 0.632812 236.839844 Z M 0.632812 0.5 " clip-rule="nonzero"/></clipPath><clipPath id="3224d43fa7"><path d="M 101.882812 0.5 L 686.691406 0.5 C 713.546875 0.5 739.296875 11.167969 758.285156 30.15625 C 777.273438 49.144531 787.941406 74.898438 787.941406 101.75 L 787.941406 135.589844 C 787.941406 162.441406 777.273438 188.195312 758.285156 207.183594 C 739.296875 226.171875 713.546875 236.839844 686.691406 236.839844 L 101.882812 236.839844 C 75.027344 236.839844 49.277344 226.171875 30.289062 207.183594 C 11.300781 188.195312 0.632812 162.441406 0.632812 135.589844 L 0.632812 101.75 C 0.632812 74.898438 11.300781 49.144531 30.289062 30.15625 C 49.277344 11.167969 75.027344 0.5 101.882812 0.5 Z M 101.882812 0.5 " clip-rule="nonzero"/></clipPath><clipPath id="1f149db4fc"><rect x="0" width="788" y="0" height="237"/></clipPath><clipPath id="2ba2568d96"><rect x="0" width="789" y="0" height="237"/></clipPath><clipPath id="0fb52a27bf"><path d="M 0.996094 0.0820312 L 191.648438 0.0820312 L 191.648438 189.257812 L 0.996094 189.257812 Z M 0.996094 0.0820312 " clip-rule="nonzero"/></clipPath><clipPath id="84930ef53f"><path d="M 96.238281 0.0820312 C 43.636719 0.0820312 0.996094 42.429688 0.996094 94.667969 C 0.996094 146.910156 43.636719 189.257812 96.238281 189.257812 C 148.835938 189.257812 191.476562 146.910156 191.476562 94.667969 C 191.476562 42.429688 148.835938 0.0820312 96.238281 0.0820312 Z M 96.238281 0.0820312 " clip-rule="nonzero"/></clipPath><clipPath id="efb3278a8a"><path d="M 0.996094 0.0820312 L 191.601562 0.0820312 L 191.601562 189.257812 L 0.996094 189.257812 Z M 0.996094 0.0820312 " clip-rule="nonzero"/></clipPath><clipPath id="ee0d90c89b"><path d="M 96.238281 0.0820312 C 43.636719 0.0820312 0.996094 42.429688 0.996094 94.667969 C 0.996094 146.910156 43.636719 189.257812 96.238281 189.257812 C 148.835938 189.257812 191.476562 146.910156 191.476562 94.667969 C 191.476562 42.429688 148.835938 0.0820312 96.238281 0.0820312 Z M 96.238281 0.0820312 " clip-rule="nonzero"/></clipPath><clipPath id="9bce2b2385"><rect x="0" width="192" y="0" height="190"/></clipPath><clipPath id="be2432e166"><rect x="0" width="192" y="0" height="190"/></clipPath><clipPath id="bfb4b80826"><rect x="0" width="144" y="0" height="114"/></clipPath><clipPath id="e36775e46e"><rect x="0" width="471" y="0" height="149"/></clipPath><clipPath id="d9dab80cd6"><rect x="0" width="789" y="0" height="237"/></clipPath><clipPath id="555540149f"><rect x="0" width="789" y="0" height="237"/></clipPath></defs><g transform="matrix(1, 0, 0, 1, 325, 286)"><g clip-path="url(#555540149f)"><g clip-path="url(#cabebea818)"><g transform="matrix(1, 0, 0, 1, 0, 0.000000000000056843)"><g clip-path="url(#d9dab80cd6)"><g clip-path="url(#1d9180a01e)"><g transform="matrix(1, 0, 0, 1, 0, 0.000000000000056843)"><g clip-path="url(#2ba2568d96)"><g clip-path="url(#16162a3031)"><g clip-path="url(#2fd698df7f)"><g transform="matrix(1, 0, 0, 1, 0, 0.000000000000056843)"><g clip-path="url(#1f149db4fc)"><g clip-path="url(#c7268f5d59)"><g clip-path="url(#3224d43fa7)"><path fill="#007a8f" d="M 0.632812 0.5 L 788.125 0.5 L 788.125 236.839844 L 0.632812 236.839844 Z M 0.632812 0.5 " fill-opacity="1" fill-rule="nonzero"/></g></g></g></g></g></g></g></g></g><g transform="matrix(1, 0, 0, 1, 33, 24)"><g clip-path="url(#be2432e166)"><g clip-path="url(#0fb52a27bf)"><g clip-path="url(#84930ef53f)"><g transform="matrix(1, 0, 0, 1, 0, 0.000000000000056843)"><g clip-path="url(#9bce2b2385)"><g clip-path="url(#efb3278a8a)"><g clip-path="url(#ee0d90c89b)"><path fill="#ffffff" d="M 0.996094 0.0820312 L 191.648438 0.0820312 L 191.648438 189.257812 L 0.996094 189.257812 Z M 0.996094 0.0820312 " fill-opacity="1" fill-rule="nonzero"/></g></g></g></g></g></g></g></g><g transform="matrix(1, 0, 0, 1, 56, 80)"><g clip-path="url(#bfb4b80826)"><g fill="#007a8f" fill-opacity="1"><g transform="translate(2.594604, 70.273191)"><g><path d="M 70.515625 -53.484375 L 77.40625 -53.484375 C 78.570312 -53.484375 79.523438 -53.351562 80.265625 -53.09375 C 81.003906 -52.84375 81.375 -52.3125 81.375 -51.5 C 81.375 -50.78125 81.144531 -50.226562 80.6875 -49.84375 C 80.226562 -49.46875 79.65625 -49.085938 78.96875 -48.703125 C 78.28125 -48.328125 77.59375 -47.769531 76.90625 -47.03125 C 76.21875 -46.289062 75.617188 -45.179688 75.109375 -43.703125 L 60.96875 -2.375 C 60.769531 -1.863281 60.398438 -1.378906 59.859375 -0.921875 C 59.328125 -0.460938 58.296875 -0.101562 56.765625 0.15625 C 55.085938 0.457031 53.878906 0.503906 53.140625 0.296875 C 52.398438 0.0976562 51.90625 -0.351562 51.65625 -1.0625 L 40.71875 -33.15625 L 30.328125 -2.296875 C 30.179688 -1.785156 29.828125 -1.3125 29.265625 -0.875 C 28.703125 -0.445312 27.65625 -0.101562 26.125 0.15625 C 24.550781 0.40625 23.40625 0.441406 22.6875 0.265625 C 21.976562 0.0859375 21.492188 -0.351562 21.234375 -1.0625 L 6.34375 -43.546875 C 5.832031 -45.023438 5.257812 -46.144531 4.625 -46.90625 C 3.988281 -47.675781 3.375 -48.265625 2.78125 -48.671875 C 2.195312 -49.078125 1.710938 -49.46875 1.328125 -49.84375 C 0.953125 -50.226562 0.765625 -50.753906 0.765625 -51.421875 C 0.765625 -52.285156 1.066406 -52.84375 1.671875 -53.09375 C 2.285156 -53.351562 3.179688 -53.484375 4.359375 -53.484375 L 16.578125 -53.484375 C 17.648438 -53.484375 18.503906 -53.34375 19.140625 -53.0625 C 19.773438 -52.78125 20.09375 -52.257812 20.09375 -51.5 C 20.09375 -50.78125 19.898438 -50.21875 19.515625 -49.8125 C 19.140625 -49.40625 18.722656 -48.984375 18.265625 -48.546875 C 17.804688 -48.117188 17.5 -47.535156 17.34375 -46.796875 C 17.1875 -46.054688 17.335938 -44.972656 17.796875 -43.546875 L 28.265625 -12 L 38.203125 -40.578125 L 37.28125 -43.546875 C 36.820312 -45.023438 36.273438 -46.144531 35.640625 -46.90625 C 35.003906 -47.675781 34.40625 -48.265625 33.84375 -48.671875 C 33.28125 -49.078125 32.804688 -49.46875 32.421875 -49.84375 C 32.046875 -50.226562 31.859375 -50.753906 31.859375 -51.421875 C 31.859375 -52.285156 32.160156 -52.84375 32.765625 -53.09375 C 33.378906 -53.351562 34.273438 -53.484375 35.453125 -53.484375 L 47.671875 -53.484375 C 48.742188 -53.484375 49.597656 -53.34375 50.234375 -53.0625 C 50.867188 -52.78125 51.1875 -52.257812 51.1875 -51.5 C 51.1875 -50.78125 50.992188 -50.21875 50.609375 -49.8125 C 50.234375 -49.40625 49.816406 -48.984375 49.359375 -48.546875 C 48.898438 -48.117188 48.582031 -47.535156 48.40625 -46.796875 C 48.226562 -46.054688 48.367188 -44.972656 48.828125 -43.546875 L 58.75 -12.296875 L 69.21875 -43.703125 C 69.726562 -45.234375 69.921875 -46.378906 69.796875 -47.140625 C 69.671875 -47.898438 69.390625 -48.472656 68.953125 -48.859375 C 68.523438 -49.242188 68.101562 -49.613281 67.6875 -49.96875 C 67.28125 -50.320312 67.078125 -50.832031 67.078125 -51.5 C 67.078125 -52.3125 67.410156 -52.84375 68.078125 -53.09375 C 68.742188 -53.351562 69.554688 -53.484375 70.515625 -53.484375 Z M 70.515625 -53.484375 "/></g></g></g><g fill="#007a8f" fill-opacity="1"><g transform="translate(83.814757, 70.273191)"><g><path d="M 29.953125 0.765625 C 24.597656 0.765625 19.894531 -0.351562 15.84375 -2.59375 C 11.800781 -4.832031 8.660156 -7.9375 6.421875 -11.90625 C 4.179688 -15.882812 3.0625 -20.472656 3.0625 -25.671875 C 3.0625 -29.640625 3.75 -33.34375 5.125 -36.78125 C 6.5 -40.226562 8.421875 -43.257812 10.890625 -45.875 C 13.359375 -48.5 16.257812 -50.550781 19.59375 -52.03125 C 22.9375 -53.507812 26.566406 -54.25 30.484375 -54.25 C 33.441406 -54.25 35.722656 -54.03125 37.328125 -53.59375 C 38.929688 -53.164062 40.191406 -52.953125 41.109375 -52.953125 C 42.078125 -52.953125 42.773438 -53.15625 43.203125 -53.5625 C 43.640625 -53.96875 44.316406 -54.171875 45.234375 -54.171875 C 45.941406 -54.171875 46.550781 -53.898438 47.0625 -53.359375 C 47.570312 -52.828125 48.003906 -51.75 48.359375 -50.125 C 48.671875 -48.800781 48.976562 -47.285156 49.28125 -45.578125 C 49.582031 -43.867188 49.914062 -41.84375 50.28125 -39.5 C 50.582031 -37.363281 49.941406 -36.21875 48.359375 -36.0625 C 47.546875 -36.007812 46.867188 -36.273438 46.328125 -36.859375 C 45.796875 -37.453125 45.125 -38.304688 44.3125 -39.421875 C 43.144531 -41.054688 41.910156 -42.609375 40.609375 -44.078125 C 39.304688 -45.554688 37.765625 -46.78125 35.984375 -47.75 C 34.203125 -48.71875 31.9375 -49.203125 29.1875 -49.203125 C 25.925781 -49.203125 23.175781 -48.359375 20.9375 -46.671875 C 18.695312 -44.992188 16.988281 -42.742188 15.8125 -39.921875 C 14.644531 -37.097656 14.0625 -34.003906 14.0625 -30.640625 C 14.0625 -25.703125 14.796875 -21.296875 16.265625 -17.421875 C 17.742188 -13.546875 19.859375 -10.488281 22.609375 -8.25 C 25.359375 -6.007812 28.644531 -4.890625 32.46875 -4.890625 C 33.789062 -4.890625 35.148438 -5.078125 36.546875 -5.453125 C 37.953125 -5.835938 39.140625 -6.425781 40.109375 -7.21875 C 41.078125 -8.007812 41.5625 -8.988281 41.5625 -10.15625 L 41.5625 -15.8125 C 41.5625 -17.289062 41.304688 -18.445312 40.796875 -19.28125 C 40.285156 -20.125 39.648438 -20.75 38.890625 -21.15625 C 38.128906 -21.570312 37.351562 -21.90625 36.5625 -22.15625 C 35.769531 -22.414062 35.117188 -22.722656 34.609375 -23.078125 C 34.097656 -23.429688 33.84375 -23.960938 33.84375 -24.671875 C 33.789062 -25.492188 34.082031 -26.066406 34.71875 -26.390625 C 35.363281 -26.722656 36.472656 -26.890625 38.046875 -26.890625 L 51.796875 -27.046875 C 52.972656 -27.046875 53.835938 -26.890625 54.390625 -26.578125 C 54.953125 -26.273438 55.257812 -25.71875 55.3125 -24.90625 C 55.3125 -24.144531 55.171875 -23.582031 54.890625 -23.21875 C 54.617188 -22.863281 54.273438 -22.46875 53.859375 -22.03125 C 53.453125 -21.601562 53.109375 -20.929688 52.828125 -20.015625 C 52.554688 -19.097656 52.421875 -17.75 52.421875 -15.96875 L 52.421875 -10.625 C 52.421875 -8.84375 51.425781 -7.082031 49.4375 -5.34375 C 47.445312 -3.613281 44.757812 -2.175781 41.375 -1.03125 C 37.988281 0.113281 34.179688 0.710938 29.953125 0.765625 Z M 29.953125 0.765625 "/></g></g></g></g></g><g transform="matrix(1, 0, 0, 1, 252, 55)"><g clip-path="url(#e36775e46e)"><g fill="#ffffff" fill-opacity="1"><g transform="translate(1.221555, 92.391541)"><g><path d="M 92.203125 -70.15625 L 100.8125 -70.15625 C 102.21875 -70.15625 103.335938 -70.003906 104.171875 -69.703125 C 105.015625 -69.398438 105.4375 -68.816406 105.4375 -67.953125 C 105.4375 -67.078125 105.148438 -66.421875 104.578125 -65.984375 C 104.003906 -65.554688 103.285156 -65.09375 102.421875 -64.59375 C 101.554688 -64.09375 100.671875 -63.335938 99.765625 -62.328125 C 98.867188 -61.328125 98.050781 -59.828125 97.3125 -57.828125 L 78.578125 -2.703125 C 78.367188 -2.035156 77.929688 -1.453125 77.265625 -0.953125 C 76.597656 -0.453125 75.429688 -0.0351562 73.765625 0.296875 C 72.023438 0.566406 70.71875 0.582031 69.84375 0.34375 C 68.976562 0.113281 68.414062 -0.398438 68.15625 -1.203125 L 52.71875 -45.90625 L 38.078125 -2.703125 C 37.816406 -2.035156 37.367188 -1.453125 36.734375 -0.953125 C 36.097656 -0.453125 34.941406 -0.0351562 33.265625 0.296875 C 30.066406 0.765625 28.234375 0.265625 27.765625 -1.203125 L 7.921875 -57.71875 C 7.253906 -59.726562 6.484375 -61.234375 5.609375 -62.234375 C 4.742188 -63.234375 3.941406 -63.984375 3.203125 -64.484375 C 2.472656 -64.992188 1.851562 -65.460938 1.34375 -65.890625 C 0.84375 -66.328125 0.59375 -66.945312 0.59375 -67.75 C 0.59375 -68.75 0.992188 -69.398438 1.796875 -69.703125 C 2.597656 -70.003906 3.769531 -70.15625 5.3125 -70.15625 L 19.140625 -70.15625 C 20.472656 -70.15625 21.523438 -70.003906 22.296875 -69.703125 C 23.066406 -69.398438 23.453125 -68.78125 23.453125 -67.84375 C 23.453125 -66.976562 23.179688 -66.3125 22.640625 -65.84375 C 22.109375 -65.375 21.539062 -64.867188 20.9375 -64.328125 C 20.34375 -63.796875 19.941406 -63.03125 19.734375 -62.03125 C 19.535156 -61.03125 19.769531 -59.5625 20.4375 -57.625 L 35.578125 -12.625 L 49.8125 -54.3125 L 48.703125 -57.625 C 48.035156 -59.625 47.285156 -61.125 46.453125 -62.125 C 45.617188 -63.132812 44.832031 -63.90625 44.09375 -64.4375 C 43.363281 -64.976562 42.742188 -65.460938 42.234375 -65.890625 C 41.734375 -66.328125 41.484375 -66.945312 41.484375 -67.75 C 41.484375 -68.75 41.882812 -69.398438 42.6875 -69.703125 C 43.488281 -70.003906 44.660156 -70.15625 46.203125 -70.15625 L 60.03125 -70.15625 C 61.363281 -70.15625 62.429688 -70.003906 63.234375 -69.703125 C 64.035156 -69.398438 64.4375 -68.78125 64.4375 -67.84375 C 64.4375 -66.976562 64.171875 -66.3125 63.640625 -65.84375 C 63.109375 -65.375 62.539062 -64.867188 61.9375 -64.328125 C 61.332031 -63.796875 60.910156 -63.03125 60.671875 -62.03125 C 60.441406 -61.03125 60.628906 -59.5625 61.234375 -57.625 L 76.0625 -12.921875 L 90.890625 -57.71875 C 91.566406 -59.726562 91.820312 -61.25 91.65625 -62.28125 C 91.488281 -63.320312 91.117188 -64.078125 90.546875 -64.546875 C 89.984375 -65.015625 89.429688 -65.460938 88.890625 -65.890625 C 88.359375 -66.328125 88.09375 -66.945312 88.09375 -67.75 C 88.09375 -68.75 88.492188 -69.398438 89.296875 -69.703125 C 90.097656 -70.003906 91.066406 -70.15625 92.203125 -70.15625 Z M 92.203125 -70.15625 "/></g></g></g><g fill="#ffffff" fill-opacity="1"><g transform="translate(96.330764, 92.391541)"><g><path d="M 26.953125 1 C 22.484375 1 18.476562 0.0507812 14.9375 -1.84375 C 11.394531 -3.75 8.585938 -6.441406 6.515625 -9.921875 C 4.441406 -13.398438 3.40625 -17.507812 3.40625 -22.25 C 3.40625 -27.257812 4.570312 -31.800781 6.90625 -35.875 C 9.25 -39.945312 12.457031 -43.171875 16.53125 -45.546875 C 20.613281 -47.921875 25.257812 -49.109375 30.46875 -49.109375 C 35.007812 -49.109375 39.015625 -48.054688 42.484375 -45.953125 C 45.960938 -43.847656 48.6875 -41.003906 50.65625 -37.421875 C 52.625 -33.847656 53.609375 -29.828125 53.609375 -25.359375 C 53.609375 -20.410156 52.472656 -15.929688 50.203125 -11.921875 C 47.929688 -7.910156 44.789062 -4.753906 40.78125 -2.453125 C 36.78125 -0.148438 32.171875 1 26.953125 1 Z M 30.671875 -4.703125 C 34.546875 -4.703125 37.484375 -6.125 39.484375 -8.96875 C 41.492188 -11.8125 42.5 -15.300781 42.5 -19.4375 C 42.5 -23.445312 41.8125 -27.269531 40.4375 -30.90625 C 39.070312 -34.550781 37.1875 -37.523438 34.78125 -39.828125 C 32.375 -42.140625 29.597656 -43.296875 26.453125 -43.296875 C 23.785156 -43.296875 21.582031 -42.59375 19.84375 -41.1875 C 18.101562 -39.78125 16.796875 -37.90625 15.921875 -35.5625 C 15.054688 -33.226562 14.625 -30.660156 14.625 -27.859375 C 14.625 -23.710938 15.304688 -19.882812 16.671875 -16.375 C 18.046875 -12.875 19.9375 -10.050781 22.34375 -7.90625 C 24.75 -5.769531 27.523438 -4.703125 30.671875 -4.703125 Z M 30.671875 -4.703125 "/></g></g></g><g fill="#ffffff" fill-opacity="1"><g transform="translate(153.556836, 92.391541)"><g><path d="M 33.46875 -49.109375 C 36.34375 -49.109375 38.445312 -48.335938 39.78125 -46.796875 C 41.125 -45.265625 41.796875 -43.429688 41.796875 -41.296875 C 41.796875 -39.691406 41.394531 -38.320312 40.59375 -37.1875 C 39.789062 -36.050781 38.6875 -35.445312 37.28125 -35.375 C 36.207031 -35.375 35.351562 -35.609375 34.71875 -36.078125 C 34.09375 -36.546875 33.507812 -37.097656 32.96875 -37.734375 C 32.4375 -38.367188 31.816406 -38.9375 31.109375 -39.4375 C 30.410156 -39.9375 29.460938 -40.1875 28.265625 -40.1875 C 26.253906 -40.1875 24.460938 -38.984375 22.890625 -36.578125 C 21.328125 -34.171875 20.546875 -30.960938 20.546875 -26.953125 L 20.546875 -13.53125 C 20.546875 -11.1875 20.78125 -9.445312 21.25 -8.3125 C 21.71875 -7.175781 22.269531 -6.34375 22.90625 -5.8125 C 23.539062 -5.28125 24.085938 -4.796875 24.546875 -4.359375 C 25.015625 -3.921875 25.25 -3.203125 25.25 -2.203125 C 25.25 -1.335938 24.898438 -0.753906 24.203125 -0.453125 C 23.503906 -0.148438 22.484375 0 21.140625 0 L 8.515625 0 C 7.242188 0 6.222656 -0.164062 5.453125 -0.5 C 4.691406 -0.832031 4.3125 -1.4375 4.3125 -2.3125 C 4.3125 -3.238281 4.5625 -3.921875 5.0625 -4.359375 C 5.5625 -4.796875 6.128906 -5.28125 6.765625 -5.8125 C 7.398438 -6.34375 7.96875 -7.175781 8.46875 -8.3125 C 8.96875 -9.445312 9.21875 -11.1875 9.21875 -13.53125 L 9.21875 -33.171875 C 9.21875 -34.710938 8.984375 -36.050781 8.515625 -37.1875 C 8.046875 -38.320312 7.242188 -39.253906 6.109375 -39.984375 C 5.640625 -40.316406 5.222656 -40.679688 4.859375 -41.078125 C 4.492188 -41.484375 4.3125 -41.988281 4.3125 -42.59375 C 4.3125 -43.257812 4.507812 -43.804688 4.90625 -44.234375 C 5.3125 -44.671875 6.113281 -45.160156 7.3125 -45.703125 C 9.113281 -46.503906 11.035156 -47.222656 13.078125 -47.859375 C 15.117188 -48.492188 16.503906 -48.84375 17.234375 -48.90625 C 18.640625 -48.90625 19.34375 -48.035156 19.34375 -46.296875 L 19.234375 -39.390625 C 20.972656 -42.390625 23.113281 -44.757812 25.65625 -46.5 C 28.195312 -48.238281 30.800781 -49.109375 33.46875 -49.109375 Z M 33.46875 -49.109375 "/></g></g></g><g fill="#ffffff" fill-opacity="1"><g transform="translate(198.255315, 92.391541)"><g><path d="M 44.296875 -38.984375 L 40.6875 -35.171875 L 51.609375 -10.21875 C 52.410156 -8.550781 53.34375 -7.300781 54.40625 -6.46875 C 55.476562 -5.632812 56.414062 -4.929688 57.21875 -4.359375 C 58.019531 -3.785156 58.421875 -3 58.421875 -2 C 58.421875 -1.195312 58.070312 -0.660156 57.375 -0.390625 C 56.675781 -0.128906 55.554688 0 54.015625 0 L 41.890625 0 C 39.015625 0 37.578125 -0.664062 37.578125 -2 C 37.578125 -2.738281 37.8125 -3.34375 38.28125 -3.8125 C 38.75 -4.28125 39.234375 -4.710938 39.734375 -5.109375 C 40.234375 -5.515625 40.597656 -6.015625 40.828125 -6.609375 C 41.066406 -7.210938 40.953125 -8.015625 40.484375 -9.015625 L 32.578125 -26.859375 L 20.4375 -14.328125 L 20.4375 -13.53125 C 20.4375 -11.1875 20.671875 -9.445312 21.140625 -8.3125 C 21.609375 -7.175781 22.160156 -6.34375 22.796875 -5.8125 C 23.429688 -5.28125 23.984375 -4.796875 24.453125 -4.359375 C 24.921875 -3.921875 25.15625 -3.203125 25.15625 -2.203125 C 25.15625 -1.335938 24.800781 -0.753906 24.09375 -0.453125 C 23.394531 -0.148438 22.378906 0 21.046875 0 L 8.421875 0 C 7.148438 0 6.128906 -0.164062 5.359375 -0.5 C 4.585938 -0.832031 4.203125 -1.4375 4.203125 -2.3125 C 4.203125 -3.238281 4.453125 -3.921875 4.953125 -4.359375 C 5.460938 -4.796875 6.03125 -5.28125 6.65625 -5.8125 C 7.289062 -6.34375 7.859375 -7.175781 8.359375 -8.3125 C 8.867188 -9.445312 9.125 -11.1875 9.125 -13.53125 L 9.125 -54.71875 C 9.125 -56.65625 8.867188 -58.125 8.359375 -59.125 C 7.859375 -60.125 7.289062 -60.859375 6.65625 -61.328125 C 6.03125 -61.796875 5.460938 -62.226562 4.953125 -62.625 C 4.453125 -63.03125 4.203125 -63.632812 4.203125 -64.4375 C 4.203125 -65.039062 4.398438 -65.539062 4.796875 -65.9375 C 5.203125 -66.34375 6.007812 -66.8125 7.21875 -67.34375 C 9.351562 -68.34375 11.554688 -69.210938 13.828125 -69.953125 C 16.097656 -70.691406 17.601562 -71.09375 18.34375 -71.15625 C 19.8125 -71.21875 20.546875 -70.347656 20.546875 -68.546875 L 20.4375 -54.71875 L 20.4375 -21.75 L 37.78125 -39.59375 C 38.644531 -40.519531 39.023438 -41.25 38.921875 -41.78125 C 38.828125 -42.320312 38.515625 -42.804688 37.984375 -43.234375 C 37.453125 -43.671875 36.929688 -44.109375 36.421875 -44.546875 C 35.921875 -44.984375 35.671875 -45.5 35.671875 -46.09375 C 35.671875 -46.769531 35.921875 -47.273438 36.421875 -47.609375 C 36.929688 -47.941406 37.816406 -48.109375 39.078125 -48.109375 L 50.015625 -48.109375 C 52.347656 -48.109375 53.515625 -47.4375 53.515625 -46.09375 C 53.515625 -45.226562 53.113281 -44.628906 52.3125 -44.296875 C 51.507812 -43.960938 50.421875 -43.460938 49.046875 -42.796875 C 47.679688 -42.128906 46.097656 -40.859375 44.296875 -38.984375 Z M 44.296875 -38.984375 "/></g></g></g><g fill="#ffffff" fill-opacity="1"><g transform="translate(258.989125, 92.391541)"><g><path d="M 39.078125 1 C 31.929688 1 25.71875 -0.484375 20.4375 -3.453125 C 15.164062 -6.429688 11.09375 -10.523438 8.21875 -15.734375 C 5.34375 -20.941406 3.90625 -26.851562 3.90625 -33.46875 C 3.90625 -38.75 4.804688 -43.660156 6.609375 -48.203125 C 8.421875 -52.742188 10.960938 -56.734375 14.234375 -60.171875 C 17.503906 -63.617188 21.34375 -66.3125 25.75 -68.25 C 30.164062 -70.1875 35.007812 -71.15625 40.28125 -71.15625 C 43.957031 -71.15625 46.78125 -70.90625 48.75 -70.40625 C 50.726562 -69.90625 52.347656 -69.65625 53.609375 -69.65625 C 54.816406 -69.65625 55.703125 -69.867188 56.265625 -70.296875 C 56.835938 -70.734375 57.625 -70.953125 58.625 -70.953125 C 59.5625 -70.953125 60.328125 -70.617188 60.921875 -69.953125 C 61.523438 -69.285156 62.0625 -67.882812 62.53125 -65.75 C 62.9375 -64.070312 63.351562 -62.144531 63.78125 -59.96875 C 64.21875 -57.800781 64.671875 -55.25 65.140625 -52.3125 C 65.273438 -51.113281 65.207031 -50.175781 64.9375 -49.5 C 64.675781 -48.832031 64.039062 -48.4375 63.03125 -48.3125 C 62.164062 -48.238281 61.378906 -48.535156 60.671875 -49.203125 C 59.972656 -49.867188 59.160156 -50.875 58.234375 -52.21875 C 56.753906 -54.289062 55.160156 -56.3125 53.453125 -58.28125 C 51.753906 -60.25 49.648438 -61.867188 47.140625 -63.140625 C 44.640625 -64.410156 41.488281 -65.046875 37.6875 -65.046875 C 33.070312 -65.046875 29.144531 -63.84375 25.90625 -61.4375 C 22.664062 -59.03125 20.207031 -55.890625 18.53125 -52.015625 C 16.863281 -48.140625 16 -43.929688 15.9375 -39.390625 C 15.9375 -32.972656 16.96875 -27.207031 19.03125 -22.09375 C 21.101562 -16.988281 24.09375 -12.945312 28 -9.96875 C 31.914062 -7 36.546875 -5.515625 41.890625 -5.515625 C 43.960938 -5.515625 46.066406 -5.796875 48.203125 -6.359375 C 50.335938 -6.929688 52.140625 -7.765625 53.609375 -8.859375 C 55.085938 -9.960938 55.828125 -11.285156 55.828125 -12.828125 L 55.828125 -21.453125 C 55.828125 -23.316406 55.472656 -24.78125 54.765625 -25.84375 C 54.066406 -26.914062 53.195312 -27.734375 52.15625 -28.296875 C 51.125 -28.867188 50.085938 -29.320312 49.046875 -29.65625 C 48.015625 -30 47.148438 -30.398438 46.453125 -30.859375 C 45.753906 -31.328125 45.40625 -32 45.40625 -32.875 C 45.40625 -33.8125 45.800781 -34.445312 46.59375 -34.78125 C 47.394531 -35.113281 48.734375 -35.28125 50.609375 -35.28125 L 67.140625 -35.375 C 68.347656 -35.445312 69.316406 -35.3125 70.046875 -34.96875 C 70.785156 -34.632812 71.15625 -34.003906 71.15625 -33.078125 C 71.15625 -32.140625 70.96875 -31.453125 70.59375 -31.015625 C 70.226562 -30.578125 69.796875 -30.09375 69.296875 -29.5625 C 68.796875 -29.03125 68.363281 -28.160156 68 -26.953125 C 67.632812 -25.753906 67.453125 -23.921875 67.453125 -21.453125 L 67.453125 -13.421875 C 67.453125 -11.753906 66.695312 -10.066406 65.1875 -8.359375 C 63.6875 -6.660156 61.632812 -5.109375 59.03125 -3.703125 C 56.425781 -2.304688 53.398438 -1.171875 49.953125 -0.296875 C 46.515625 0.566406 42.890625 1 39.078125 1 Z M 39.078125 1 "/></g></g></g><g fill="#ffffff" fill-opacity="1"><g transform="translate(334.455359, 92.391541)"><g><path d="M 33.46875 -49.109375 C 36.34375 -49.109375 38.445312 -48.335938 39.78125 -46.796875 C 41.125 -45.265625 41.796875 -43.429688 41.796875 -41.296875 C 41.796875 -39.691406 41.394531 -38.320312 40.59375 -37.1875 C 39.789062 -36.050781 38.6875 -35.445312 37.28125 -35.375 C 36.207031 -35.375 35.351562 -35.609375 34.71875 -36.078125 C 34.09375 -36.546875 33.507812 -37.097656 32.96875 -37.734375 C 32.4375 -38.367188 31.816406 -38.9375 31.109375 -39.4375 C 30.410156 -39.9375 29.460938 -40.1875 28.265625 -40.1875 C 26.253906 -40.1875 24.460938 -38.984375 22.890625 -36.578125 C 21.328125 -34.171875 20.546875 -30.960938 20.546875 -26.953125 L 20.546875 -13.53125 C 20.546875 -11.1875 20.78125 -9.445312 21.25 -8.3125 C 21.71875 -7.175781 22.269531 -6.34375 22.90625 -5.8125 C 23.539062 -5.28125 24.085938 -4.796875 24.546875 -4.359375 C 25.015625 -3.921875 25.25 -3.203125 25.25 -2.203125 C 25.25 -1.335938 24.898438 -0.753906 24.203125 -0.453125 C 23.503906 -0.148438 22.484375 0 21.140625 0 L 8.515625 0 C 7.242188 0 6.222656 -0.164062 5.453125 -0.5 C 4.691406 -0.832031 4.3125 -1.4375 4.3125 -2.3125 C 4.3125 -3.238281 4.5625 -3.921875 5.0625 -4.359375 C 5.5625 -4.796875 6.128906 -5.28125 6.765625 -5.8125 C 7.398438 -6.34375 7.96875 -7.175781 8.46875 -8.3125 C 8.96875 -9.445312 9.21875 -11.1875 9.21875 -13.53125 L 9.21875 -33.171875 C 9.21875 -34.710938 8.984375 -36.050781 8.515625 -37.1875 C 8.046875 -38.320312 7.242188 -39.253906 6.109375 -39.984375 C 5.640625 -40.316406 5.222656 -40.679688 4.859375 -41.078125 C 4.492188 -41.484375 4.3125 -41.988281 4.3125 -42.59375 C 4.3125 -43.257812 4.507812 -43.804688 4.90625 -44.234375 C 5.3125 -44.671875 6.113281 -45.160156 7.3125 -45.703125 C 9.113281 -46.503906 11.035156 -47.222656 13.078125 -47.859375 C 15.117188 -48.492188 16.503906 -48.84375 17.234375 -48.90625 C 18.640625 -48.90625 19.34375 -48.035156 19.34375 -46.296875 L 19.234375 -39.390625 C 20.972656 -42.390625 23.113281 -44.757812 25.65625 -46.5 C 28.195312 -48.238281 30.800781 -49.109375 33.46875 -49.109375 Z M 33.46875 -49.109375 "/></g></g></g><g fill="#ffffff" fill-opacity="1"><g transform="translate(379.855402, 92.391541)"><g><path d="M 11.421875 -55.625 C 9.753906 -55.6875 8.4375 -56.25 7.46875 -57.3125 C 6.5 -58.382812 6.046875 -59.660156 6.109375 -61.140625 C 6.179688 -62.535156 6.679688 -63.898438 7.609375 -65.234375 C 8.546875 -66.578125 9.75 -67.664062 11.21875 -68.5 C 12.6875 -69.332031 14.191406 -69.679688 15.734375 -69.546875 C 17.273438 -69.484375 18.578125 -68.898438 19.640625 -67.796875 C 20.710938 -66.691406 21.210938 -65.375 21.140625 -63.84375 C 21.078125 -62.4375 20.546875 -61.097656 19.546875 -59.828125 C 18.546875 -58.554688 17.328125 -57.519531 15.890625 -56.71875 C 14.453125 -55.914062 12.960938 -55.550781 11.421875 -55.625 Z M 9.21875 -13.53125 L 9.125 -32.765625 C 9.125 -34.703125 8.890625 -36.171875 8.421875 -37.171875 C 7.953125 -38.179688 7.398438 -38.921875 6.765625 -39.390625 C 6.128906 -39.859375 5.5625 -40.289062 5.0625 -40.6875 C 4.5625 -41.09375 4.3125 -41.695312 4.3125 -42.5 C 4.3125 -43.09375 4.507812 -43.585938 4.90625 -43.984375 C 5.3125 -44.390625 6.113281 -44.863281 7.3125 -45.40625 C 9.445312 -46.40625 11.648438 -47.269531 13.921875 -48 C 16.203125 -48.738281 17.707031 -49.140625 18.4375 -49.203125 C 19.90625 -49.273438 20.640625 -48.410156 20.640625 -46.609375 L 20.546875 -32.765625 L 20.546875 -13.53125 C 20.546875 -11.1875 20.78125 -9.445312 21.25 -8.3125 C 21.71875 -7.175781 22.269531 -6.34375 22.90625 -5.8125 C 23.539062 -5.28125 24.085938 -4.796875 24.546875 -4.359375 C 25.015625 -3.921875 25.25 -3.203125 25.25 -2.203125 C 25.25 -1.335938 24.898438 -0.753906 24.203125 -0.453125 C 23.503906 -0.148438 22.484375 0 21.140625 0 L 8.515625 0 C 7.242188 0 6.222656 -0.164062 5.453125 -0.5 C 4.691406 -0.832031 4.3125 -1.4375 4.3125 -2.3125 C 4.3125 -3.238281 4.5625 -3.921875 5.0625 -4.359375 C 5.5625 -4.796875 6.128906 -5.28125 6.765625 -5.8125 C 7.398438 -6.34375 7.96875 -7.175781 8.46875 -8.3125 C 8.96875 -9.445312 9.21875 -11.1875 9.21875 -13.53125 Z M 9.21875 -13.53125 "/></g></g></g><g fill="#ffffff" fill-opacity="1"><g transform="translate(409.220115, 92.391541)"><g><path d="M 52.3125 -67.953125 L 52.21875 -54.21875 L 52.109375 -14.125 C 52.109375 -12.257812 52.410156 -10.890625 53.015625 -10.015625 C 53.617188 -9.148438 54.300781 -8.53125 55.0625 -8.15625 C 55.832031 -7.789062 56.519531 -7.457031 57.125 -7.15625 C 57.726562 -6.863281 58.03125 -6.347656 58.03125 -5.609375 C 58.03125 -4.546875 57.0625 -3.476562 55.125 -2.40625 C 53.71875 -1.664062 52.007812 -0.925781 50 -0.1875 C 48 0.539062 46.332031 0.90625 45 0.90625 C 42.53125 0.90625 41.257812 -0.929688 41.1875 -4.609375 L 41.09375 -7.71875 C 39.414062 -5.3125 37.175781 -3.238281 34.375 -1.5 C 31.570312 0.238281 28.164062 1.070312 24.15625 1 C 20.007812 0.9375 16.382812 -0.09375 13.28125 -2.09375 C 10.175781 -4.101562 7.753906 -6.8125 6.015625 -10.21875 C 4.273438 -13.625 3.40625 -17.46875 3.40625 -21.75 C 3.40625 -25.894531 4.125 -29.632812 5.5625 -32.96875 C 7 -36.3125 8.921875 -39.1875 11.328125 -41.59375 C 13.734375 -44 16.4375 -45.851562 19.4375 -47.15625 C 22.445312 -48.457031 25.488281 -49.109375 28.5625 -49.109375 C 33.300781 -49.109375 37.410156 -47.90625 40.890625 -45.5 L 40.890625 -54.125 C 40.890625 -56.125 40.640625 -57.625 40.140625 -58.625 C 39.640625 -59.625 39.070312 -60.359375 38.4375 -60.828125 C 37.800781 -61.296875 37.234375 -61.726562 36.734375 -62.125 C 36.234375 -62.53125 35.984375 -63.101562 35.984375 -63.84375 C 35.984375 -64.4375 36.179688 -64.929688 36.578125 -65.328125 C 36.984375 -65.734375 37.785156 -66.207031 38.984375 -66.75 C 41.117188 -67.75 43.320312 -68.628906 45.59375 -69.390625 C 47.863281 -70.160156 49.398438 -70.546875 50.203125 -70.546875 C 51.609375 -70.679688 52.3125 -69.816406 52.3125 -67.953125 Z M 28.765625 -6.609375 C 31.171875 -6.609375 33.238281 -7.191406 34.96875 -8.359375 C 36.707031 -9.535156 38.0625 -11.023438 39.03125 -12.828125 C 40 -14.628906 40.582031 -16.535156 40.78125 -18.546875 L 40.78125 -23.859375 C 40.71875 -25.921875 40.503906 -28.035156 40.140625 -30.203125 C 39.773438 -32.378906 39.125 -34.304688 38.1875 -35.984375 C 35.507812 -40.992188 31.664062 -43.5 26.65625 -43.5 C 22.78125 -43.5 19.753906 -41.976562 17.578125 -38.9375 C 15.410156 -35.894531 14.328125 -31.96875 14.328125 -27.15625 C 14.328125 -22.675781 15.03125 -18.914062 16.4375 -15.875 C 17.84375 -12.84375 19.644531 -10.539062 21.84375 -8.96875 C 24.050781 -7.394531 26.359375 -6.609375 28.765625 -6.609375 Z M 28.765625 -6.609375 "/></g></g></g></g></g></g></g></g></g></g></svg>